<svg xmlns="http://www.w3.org/2000/svg" viewBox="0 0 100 100" fill="currentColor">
  <path
    fill-rule="evenodd"
    clip-rule="evenodd"
    d="M 50,3.5 C 24.348371,3.5 3.5,24.348371 3.5,50 3.5,75.651629 24.348371,96.5 50,96.5 75.651629,96.5 96.5,75.651629 96.5,50 96.5,24.348371 75.651629,3.5 50,3.5 Z m 0,5 C 72.949429,8.5 91.5,27.050571 91.5,50 91.5,72.949429 72.949429,91.5 50,91.5 27.050571,91.5 8.5,72.949429 8.5,50 8.5,27.050571 27.050571,8.5 50,8.5 Z"
  />
  <path
    fill-rule="evenodd"
    clip-rule="evenodd"
    d="m 50,15.5 a 2.50025,2.50025 0 0 0 -2.189453,1.292969 l -32,58 A 2.50025,2.50025 0 0 0 18,78.5 h 64 a 2.50025,2.50025 0 0 0 2.189453,-3.707031 l -32,-58 A 2.50025,2.50025 0 0 0 50,15.5 Z M 50,23.175781 77.765625,73.5 h -55.53125 z"
  />
</svg>
