<svg xmlns="http://www.w3.org/2000/svg" viewBox="0 0 100 100" fill="currentColor">
  <path fill-rule="evenodd" clip-rule="evenodd" d="M50 10 A40 40 0 0 1 50 90 Z" />
  <path fill-rule="evenodd" clip-rule="evenodd" d="M 50,8 C 26.82773,8 8,26.82773 8,50 8,73.17227 26.82773,92 50,92 73.17227,92 92,73.17227 92,50 92,26.82773 73.17227,8 50,8 Z m 0,4 C 71.01051,12 88,28.98949 88,50 88,71.01051 71.01051,88 50,88 28.98949,88 12,71.01051 12,50 12,28.98949 28.98949,12 50,12 Z" />
  <path fill-rule="evenodd" clip-rule="evenodd" d="m 50,32 c -9.917442,0 -18,8.082566 -18,18 0,9.917434 8.082558,18 18,18 a 2,2 0 0 0 2,-2 2,2 0 0 0 -2,-2 C 42.244318,64 36,57.755677 36,50 36,42.244323 42.244318,36 50,36 a 2,2 0 0 0 2,-2 2,2 0 0 0 -2,-2 z" />
</svg>
