<svg xmlns="http://www.w3.org/2000/svg" viewBox="0 0 100 100" fill="currentColor">
  <path fill-rule="evenodd" clip-rule="evenodd" d="M 10,7.5 A 2.50025,2.50025 0 0 0 7.5,10 V 90 A 2.50025,2.50025 0 0 0 10,92.5 H 90 A 2.50025,2.50025 0 0 0 92.5,90 V 10 A 2.50025,2.50025 0 0 0 90,7.5 Z m 2.5,5 h 75 v 75 h -75 z" />
  <path fill-rule="evenodd" clip-rule="evenodd" d="M 11.636719,8.1113281 A 2.5,2.5 0 0 0 8.1113281,8.3632813 2.5,2.5 0 0 0 8.3632813,11.888672 C 23.037223,24.606088 28.5,35.666667 28.5,50 28.5,64.333333 23.037223,75.393912 8.3632813,88.111328 a 2.5,2.5 0 0 0 -0.2519532,3.525391 2.5,2.5 0 0 0 3.5253909,0.251953 C 26.962777,78.606088 33.5,65.666667 33.5,50 33.5,34.333333 26.962777,21.393912 11.636719,8.1113281 Z" />
  <path fill-rule="evenodd" clip-rule="evenodd" d="M 90.177734,7.5058594 A 2.5,2.5 0 0 0 88.363281,8.1113281 C 73.037223,21.393912 66.5,34.333333 66.5,50 c 0,15.666667 6.537223,28.606088 21.863281,41.888672 a 2.5,2.5 0 0 0 3.525391,-0.251953 2.5,2.5 0 0 0 -0.251953,-3.525391 C 76.962777,75.393912 71.5,64.333333 71.5,50 71.5,35.666667 76.962777,24.606088 91.636719,11.888672 A 2.5,2.5 0 0 0 91.888672,8.3632813 2.5,2.5 0 0 0 90.177734,7.5058594 Z" />
</svg>
