<svg xmlns="http://www.w3.org/2000/svg" viewBox="0 0 220 120" fill="currentColor">
  <path fill-rule="evenodd" clip-rule="evenodd" d="m 10,8 a 2.0002,2.0002 0 0 0 -2,2 v 90 a 2.0002,2.0002 0 0 0 2,2 h 90 a 2.0002,2.0002 0 0 0 2,-2 V 10 a 2.0002,2.0002 0 0 0 -2,-2 z m 2,4 H 98 V 98 H 12 Z" />
  <path d="m 100,53 a 2,2 0 0 0 -2,2 2,2 0 0 0 2,2 h 110 a 2,2 0 0 0 2,-2 2,2 0 0 0 -2,-2 z" />
  <path d="M 52.592773,67 46.516602,57.288086 H 39.228516 V 67 H 36.057617 V 43.608398 h 11.006836 q 3.951172,0 6.092774,1.776368 2.158203,1.759765 2.158203,4.914062 0,2.606445 -1.527344,4.382813 -1.510742,1.776367 -4.183594,2.241211 L 56.245117,67 Z M 52.12793,50.332031 q 0,-2.041992 -1.394532,-3.104492 -1.377929,-1.079102 -3.984375,-1.079102 h -7.520507 v 8.632813 h 7.65332 q 2.506836,0 3.868164,-1.162109 1.37793,-1.178711 1.37793,-3.28711 z M 60.611328,67 V 43.608398 h 3.170899 V 64.410156 H 75.602539 V 67 Z" />
</svg>
