<svg xmlns="http://www.w3.org/2000/svg" viewBox="0 0 300 180" fill="currentColor" preserveAspectRatio="xMidYMid meet">
  <path fill-rule="evenodd" clip-rule="evenodd" d="M 100,5 C 53.09133,5 15,43.09133 15,90 c 0,46.90867 38.09133,85 85,85 46.90867,0 85,-38.09133 85,-85 C 185,43.09133 146.90867,5 100,5 Z m 0,6 c 43.66603,0 79,35.333971 79,79 0,43.66603 -35.33397,79 -79,79 C 56.333971,169 21,133.66603 21,90 21,46.333971 56.333971,11 100,11 Z" />
  <path fill-rule="evenodd" clip-rule="evenodd" d="m 42,35 a 3.0003,3.0003 0 0 0 -3,3 v 104 a 3.0003,3.0003 0 0 0 3,3 h 112 a 3.0003,3.0003 0 0 0 3,-3 V 38 a 3.0003,3.0003 0 0 0 -3,-3 z m 3,6 h 106 v 98 H 45 Z" />
  <path d="m 154,87 a 3,3 0 0 0 -3,3 3,3 0 0 0 3,3 h 132 a 3,3 0 0 0 3,-3 3,3 0 0 0 -3,-3 z" />
  <path d="M 94.601562,106 86.023437,92.289062 H 75.734375 V 106 H 71.257812 V 72.976562 h 15.539063 q 5.578125,0 8.601562,2.507813 3.046875,2.484375 3.046875,6.9375 0,3.679687 -2.15625,6.1875 -2.132812,2.507812 -5.90625,3.164062 L 99.757812,106 Z m -0.65625,-23.53125 q 0,-2.882813 -1.96875,-4.382813 Q 90.03125,76.5625 86.351562,76.5625 H 75.734375 V 88.75 H 86.539062 Q 90.078125,88.75 92,87.109375 93.945312,85.445312 93.945312,82.46875 Z M 105.92188,106 V 72.976562 h 4.47656 v 29.367188 h 16.6875 V 106 Z" />
</svg>
