<svg xmlns="http://www.w3.org/2000/svg" viewBox="0 0 220 90" fill="currentColor">
  <path fill-rule="evenodd" clip-rule="evenodd" d="M 116,5 C 93.932299,5 76,22.932299 76,45 76,67.067701 93.932299,85 116,85 138.0677,85 156,67.067701 156,45 156,22.932299 138.0677,5 116,5 Z m 0,4 c 19.90594,0 36,16.09406 36,36 0,19.90594 -16.09406,36 -36,36 C 96.09406,81 80,64.90594 80,45 80,25.09406 96.09406,9 116,9 Z" />
  <path d="m 10,43 a 2,2 0 0 0 -2,2 2,2 0 0 0 2,2 h 67.443359 l 43.593751,26.337891 -9.58594,2.738281 a 2,2 0 0 0 -1.375,2.472656 2,2 0 0 0 2.47266,1.375 l 14,-4 a 2,2 0 0 0 1.11523,-0.855469 2,2 0 0 0 0.0469,-0.0332 2,2 0 0 0 0.01,-0.03125 2,2 0 0 0 0.25586,-0.886719 2,2 0 0 0 -0.0195,-0.251953 2,2 0 0 0 -0.0332,-0.414062 2,2 0 0 0 -0.0801,-0.04492 2,2 0 0 0 -0.80859,-1.117188 l -48.000004,-29 A 2,2 0 0 0 78.951172,43.275391 2,2 0 0 0 78,43 Z m 124,0 a 2,2 0 0 0 -2,2 2,2 0 0 0 2,2 h 76 a 2,2 0 0 0 2,-2 2,2 0 0 0 -2,-2 z" />
  <path d="m 82,45 a 4,4 0 0 1 -4,4 4,4 0 0 1 -4,-4 4,4 0 0 1 4,-4 4,4 0 0 1 4,4 z" />
  <path d="m 138,45 a 4,4 0 0 1 -4,4 4,4 0 0 1 -4,-4 4,4 0 0 1 4,-4 4,4 0 0 1 4,4 z" />
</svg>
