<svg xmlns="http://www.w3.org/2000/svg" viewBox="0 0 220 100" fill="currentColor">
  <path d="m 10,48 a 2,2 0 0 0 -2,2 2,2 0 0 0 2,2 h 67.427734 l 43.912106,27.445312 -7.97265,2.658204 a 2,2 0 0 0 -1.26367,2.529296 2,2 0 0 0 2.52929,1.263672 l 12,-4 a 2,2 0 0 0 0.98438,-0.779297 2,2 0 0 0 0.0781,-0.05664 2,2 0 0 0 0.0234,-0.07422 2,2 0 0 0 0.26953,-0.886719 2,2 0 0 0 -0.0195,-0.154297 2,2 0 0 0 -0.0723,-0.578125 2,2 0 0 0 -0.0683,-0.0332 2,2 0 0 0 -0.76758,-1.029297 l -48.000003,-30 A 2,2 0 0 0 78.970703,48.289062 2,2 0 0 0 78,48 Z m 128,0 a 2,2 0 0 0 -2,2 2,2 0 0 0 2,2 h 72 a 2,2 0 0 0 2,-2 2,2 0 0 0 -2,-2 z" />
  <path d="M 81.5,50 A 3.5,3.5 0 0 1 78,53.5 3.5,3.5 0 0 1 74.5,50 3.5,3.5 0 0 1 78,46.5 3.5,3.5 0 0 1 81.5,50 Z" />
  <path d="M 141.5,50 A 3.5,3.5 0 0 1 138,53.5 3.5,3.5 0 0 1 134.5,50 3.5,3.5 0 0 1 138,46.5 3.5,3.5 0 0 1 141.5,50 Z" />
</svg>
