<svg xmlns="http://www.w3.org/2000/svg" viewBox="0 0 559 280" fill="currentColor" preserveAspectRatio="xMidYMid meet">
  <path d="m 0,132 v 8 h 169 v -8 z" />
  <path d="m 178,136.5 a 9.5,9.5 0 0 1 -9.5,9.5 9.5,9.5 0 0 1 -9.5,-9.5 9.5,9.5 0 0 1 9.5,-9.5 9.5,9.5 0 0 1 9.5,9.5 z" />
  <path d="M 172.89062,131.66797 168,138 l 158,122 4.89062,-6.33203 z" />
  <path d="m 193.6582,127.76172 c -9.81717,-0.44715 -18.98136,1.93432 -25.83789,5.10742 l 3.35938,7.26172 c 9.19656,-4.25604 23.91879,-6.85427 37.16992,-0.79297 13.25113,6.06131 25.93576,20.73322 31.20117,53.30078 5.54793,34.315 21.09632,53.04901 38.46875,61.68164 17.37243,8.63264 35.95698,7.36065 48.18555,3.49414 l -2.41016,-7.6289 c -10.43843,3.30049 -27.20402,4.42981 -42.21484,-3.0293 -15.01082,-7.45911 -28.87879,-23.30992 -34.13086,-55.79492 -5.53459,-34.23244 -19.76632,-51.97689 -35.77344,-59.29883 -6.00267,-2.74573 -12.12727,-4.03249 -18.01758,-4.30078 z" />
  <path d="m 332,253 a 7,7 0 0 1 -7,7 7,7 0 0 1 -7,-7 7,7 0 0 1 7,-7 7,7 0 0 1 7,7 z" />
  <path d="m 337,137.5 a 9.5,9.5 0 0 1 -9.5,9.5 9.5,9.5 0 0 1 -9.5,-9.5 9.5,9.5 0 0 1 9.5,-9.5 9.5,9.5 0 0 1 9.5,9.5 z" />
  <path d="m 327,134 v 8 h 232 v -8 z" />
</svg>
